<svg width="200" height="200" viewBox="0 0 200 200" fill="none" xmlns="http://www.w3.org/2000/svg">
<g clip-path="url(#clip0_1_2)">
<path d="M0 71.4286C0 31.9786 31.9786 0 71.4286 0H128.571C168.021 0 200 31.9786 200 71.4286V128.571C200 168.021 168.021 200 128.571 200H71.4286C31.9786 200 0 168.021 0 128.571V71.4286Z" fill="white"/>
<path d="M0 71.4286C0 31.9786 31.9786 0 71.4286 0H128.571C168.021 0 200 31.9786 200 71.4286V128.571C200 168.021 168.021 200 128.571 200H71.4286C31.9786 200 0 168.021 0 128.571V71.4286Z" fill="#D9D9D9"/>
<path d="M12.5095 75.2095C13.3452 40.9333 40.9333 13.3452 75.2095 12.5095L100 11.9048L124.79 12.5095C159.067 13.3452 186.655 40.9333 187.49 75.2095L188.095 100L187.49 124.79C186.655 159.067 159.067 186.655 124.79 187.49L100 188.095L75.2095 187.49C40.9333 186.655 13.3452 159.067 12.5095 124.79L11.9048 100L12.5095 75.2095Z" fill="white"/>
<path d="M12.5095 75.2095C13.3452 40.9333 40.9333 13.3452 75.2095 12.5095L100 11.9048L124.79 12.5095C159.067 13.3452 186.655 40.9333 187.49 75.2095L188.095 100L187.49 124.79C186.655 159.067 159.067 186.655 124.79 187.49L100 188.095L75.2095 187.49C40.9333 186.655 13.3452 159.067 12.5095 124.79L11.9048 100L12.5095 75.2095Z" fill="#333333"/>
<path d="M80.7218 134.637C80.7215 134.019 80.8428 133.408 81.0789 132.837C81.315 132.267 81.6612 131.748 82.0977 131.311C82.5343 130.875 83.0526 130.528 83.6231 130.292C84.1936 130.056 84.8051 129.934 85.4226 129.934L113.627 129.935C114.874 129.935 116.07 130.43 116.952 131.311C117.834 132.193 118.329 133.389 118.33 134.636C118.33 135.883 117.835 137.079 116.953 137.961C116.072 138.843 114.876 139.338 113.629 139.338L85.4231 139.335C84.8056 139.335 84.1941 139.214 83.6235 138.978C83.0529 138.742 82.5344 138.396 82.0977 137.959C81.661 137.523 81.3145 137.004 81.0782 136.434C80.8419 135.863 80.7203 135.252 80.7204 134.634L80.7218 134.637Z" fill="white"/>
<path d="M51.3905 73.9186C51.642 73.4823 51.9771 73.0999 52.3766 72.7931C52.776 72.4863 53.232 72.2613 53.7184 72.1308C54.2049 72.0004 54.7123 71.9671 55.2116 72.0328C55.711 72.0985 56.1924 72.262 56.6286 72.5139L76.55 84.0163C77.4309 84.5246 78.0738 85.362 78.3372 86.3444C78.6007 87.3267 78.4631 88.3735 77.9548 89.2544C77.4464 90.1352 76.609 90.7781 75.6267 91.0416C74.6443 91.305 73.5976 91.1674 72.7167 90.6591L52.7952 79.1544C52.3589 78.9028 51.9765 78.5677 51.6697 78.1683C51.3629 77.7688 51.1379 77.3128 51.0074 76.8264C50.877 76.3399 50.8437 75.8325 50.9094 75.3332C50.9751 74.8339 51.1386 74.3524 51.3905 73.9163V73.9186Z" fill="white"/>
<path d="M50.9185 101.53C50.6664 101.094 50.5028 100.613 50.4368 100.114C50.3709 99.6142 50.404 99.1068 50.5342 98.6203C50.6645 98.1338 50.8893 97.6777 51.1959 97.2781C51.5025 96.8785 51.8848 96.5433 52.321 96.2916L72.2431 84.7903C73.1238 84.2816 74.1705 84.1435 75.1529 84.4066C76.1353 84.6696 76.9731 85.3121 77.4818 86.1928C77.9905 87.0734 78.1285 88.1201 77.8655 89.1026C77.6025 90.085 76.96 90.9228 76.0793 91.4315L56.1552 102.932C55.7192 103.184 55.2377 103.347 54.7384 103.413C54.2391 103.479 53.7317 103.446 53.2452 103.316C52.7587 103.186 52.3026 102.961 51.903 102.654C51.5035 102.348 51.1682 101.965 50.9165 101.529L50.9185 101.53Z" fill="white"/>
<path d="M148.009 101.684C147.758 102.12 147.422 102.502 147.023 102.809C146.624 103.116 146.168 103.341 145.681 103.471C145.195 103.602 144.687 103.635 144.188 103.569C143.689 103.504 143.207 103.34 142.771 103.088L122.85 91.5859C121.969 91.0776 121.326 90.2402 121.062 89.2578C120.799 88.2755 120.937 87.2287 121.445 86.3479C121.953 85.467 122.791 84.8241 123.773 84.5606C124.755 84.2972 125.802 84.4348 126.683 84.9431L146.604 96.4479C147.041 96.6994 147.423 97.0345 147.73 97.4339C148.037 97.8334 148.262 98.2894 148.392 98.7758C148.523 99.2623 148.556 99.7697 148.49 100.269C148.424 100.768 148.261 101.25 148.009 101.686V101.684Z" fill="white"/>
<path d="M148.481 74.0719C148.733 74.508 148.897 74.9894 148.963 75.4887C149.029 75.988 148.996 76.4954 148.865 76.9819C148.735 77.4684 148.51 77.9245 148.204 78.3241C147.897 78.7237 147.515 79.0589 147.079 79.3107L127.157 90.8119C126.276 91.3206 125.229 91.4587 124.247 91.1956C123.264 90.9326 122.427 90.2901 121.918 89.4094C121.409 88.5288 121.271 87.4821 121.534 86.4996C121.797 85.5172 122.44 84.6794 123.32 84.1707L143.244 72.6706C143.68 72.4186 144.162 72.2549 144.661 72.1889C145.16 72.123 145.668 72.1561 146.154 72.2863C146.641 72.4166 147.097 72.6414 147.497 72.948C147.896 73.2546 148.231 73.6369 148.483 74.0731L148.481 74.0719Z" fill="white"/>
</g>
<defs>
<clipPath id="clip0_1_2">
<rect width="200" height="200" fill="white"/>
</clipPath>
</defs>
</svg>
